<svg xmlns="http://www.w3.org/2000/svg" viewBox="0 0 512 512" role="img" aria-labelledby="title desc">
  <title id="title">DryCloths icon</title>
  <desc id="desc">A clothesline with a shirt, towel, and wind mark.</desc>
  <rect width="512" height="512" rx="92" fill="#0e7490"/>
  <circle cx="382" cy="132" r="54" fill="#f59e0b"/>
  <path d="M88 188h336" fill="none" stroke="#ecfeff" stroke-width="24" stroke-linecap="round"/>
  <path d="M158 184v108c0 40 32 72 72 72h52c40 0 72-32 72-72V184" fill="#ffffff"/>
  <path d="M158 184l-50 54 44 42 42-44" fill="#cffafe"/>
  <path d="M354 184l50 54-44 42-42-44" fill="#cffafe"/>
  <path d="M218 184c10 18 23 27 38 27s28-9 38-27" fill="none" stroke="#0e7490" stroke-width="18" stroke-linecap="round"/>
  <path d="M114 394h212c24 0 44-20 44-44" fill="none" stroke="#ecfeff" stroke-width="24" stroke-linecap="round"/>
  <path d="M100 326h110" fill="none" stroke="#ecfeff" stroke-width="24" stroke-linecap="round"/>
  <path d="M326 394h72" fill="none" stroke="#f59e0b" stroke-width="24" stroke-linecap="round"/>
</svg>
